<svg width="118" height="38" viewBox="0 0 118 38" fill="none" xmlns="http://www.w3.org/2000/svg">
<path d="M4.94105 11.5173V19.0165H5.68871C9.81708 19.0165 14.6606 18.2212 16.7736 15.3427V23.9403C14.6931 21.3648 9.84959 20.5315 5.68871 20.5315H4.94105V28.8262C4.94105 31.6289 5.1686 34.015 6.17631 37.0071H0C0.975207 34.015 1.17025 31.6289 1.17025 28.8262V11.5173C1.17025 8.71455 0.975207 6.32843 0 3.3363H18.854L18.6915 11.3658C16.5785 7.16168 11.1824 4.8513 5.88375 4.8513H5.13609C4.97356 7.16168 4.94105 9.20692 4.94105 11.5173Z" fill="#323232"/>
<path d="M33.2903 36.8204C32.9002 36.025 32.6077 34.5858 32.5426 33.298C30.7548 36.1386 28.5118 37.237 26.3013 37.237C23.0506 37.237 21.1327 35.1539 21.1327 29.965V22.0491C21.1327 18.6404 21.1002 15.0044 20.125 12.6183C21.6853 12.0123 23.3432 11.2548 24.806 10.4973V29.0181C24.806 30.4574 24.806 34.0934 28.2842 34.0934C29.487 34.0934 30.9173 33.6768 32.4776 31.7451V22.0491C32.4776 18.7161 32.4451 15.118 31.4699 12.7319C33.0302 12.1259 34.6231 11.3684 36.1509 10.6109V28.147C36.1509 31.9724 36.2484 33.7904 37.3537 36.8583H33.2903V36.8204ZM22.563 5.04328C22.563 3.3389 23.6357 1.9754 25.1311 1.9754C26.6589 1.9754 27.7641 3.3389 27.7641 5.04328C27.7641 6.70977 26.6589 8.0354 25.1311 8.0354C23.6357 8.0354 22.563 6.6719 22.563 5.04328ZM29.552 5.04328C29.552 3.3389 30.6247 1.9754 32.12 1.9754C33.6479 1.9754 34.7531 3.3389 34.7531 5.04328C34.7531 6.70977 33.6479 8.0354 32.12 8.0354C30.6247 8.0354 29.552 6.6719 29.552 5.04328Z" fill="#323232"/>
<path d="M40.2759 28.8259V11.9336C40.2759 8.52489 40.1783 4.8889 39.2031 2.50277C40.861 2.04827 42.3238 1.36652 43.9166 0.381775V28.8259C43.9166 31.6286 44.0466 34.0147 44.9893 37.0069H39.2031C40.1458 34.0147 40.2759 31.6286 40.2759 28.8259Z" fill="#323232"/>
<path d="M64.6556 37.0447H60.4297C59.9746 34.6207 59.8445 31.7044 59.8445 29.0152V18.9405C59.8445 15.6833 58.9018 13.8653 56.6264 13.8653C55.3911 13.8653 53.7658 14.3955 52.0104 16.8574V28.8259C52.0104 31.6286 52.1404 34.0147 53.0831 37.0069H47.2969C48.2396 34.0147 48.3696 31.6286 48.3696 28.8259V11.9336C48.3696 8.52489 48.2721 4.8889 47.2969 2.50277C48.9547 2.04827 50.4175 1.36652 52.0104 0.381775V15.4181C53.9283 11.8579 56.2688 10.6838 58.5118 10.6838C61.4374 10.6838 63.4853 12.7669 63.4853 17.9558V28.8259C63.4853 31.6286 63.7129 34.0147 64.6556 37.0447Z" fill="#323232"/>
<path d="M79.2521 37.0446C78.862 36.2492 78.5369 34.6963 78.4394 33.5222C76.9766 36.1734 74.441 37.4612 72.003 37.4612C68.7848 37.4612 66.6719 35.2266 66.6719 31.8557C66.6719 26.9319 71.2553 25.3791 73.6284 24.3943C76.3264 23.2581 78.4719 21.9703 78.4719 21.3264V20.7583C78.4719 16.9329 77.9843 12.0849 74.246 12.0849C72.4256 12.0849 71.1903 13.2212 71.1903 15.7588C71.1903 16.9329 71.4504 18.5237 72.133 20.3796L67.5821 20.1144V18.4479C67.5821 14.8119 69.5325 10.5699 75.1562 10.5699C82.1452 10.5699 82.1452 17.0844 82.1452 20.1144V28.2954C82.1452 32.1208 82.2427 33.9388 83.3154 37.0067H79.2521V37.0446ZM78.4394 32.2723V26.4396C78.4394 25.6442 78.4394 25.4169 76.6515 25.4169C71.9055 25.4169 70.2801 26.9319 70.2801 30.2271C70.2801 32.5753 71.3854 34.2797 73.9209 34.2797C75.6763 34.2797 77.2041 33.5222 78.4394 32.2723Z" fill="#323232"/>
<path d="M98.0403 37.0451C97.6502 36.2498 97.3576 34.8105 97.2926 33.5228C95.5047 36.3634 93.2943 37.4618 91.0513 37.4618C87.8006 37.4618 85.8827 35.3787 85.8827 30.1898V22.2739C85.8827 18.8652 85.8502 15.2292 84.875 12.843C86.4353 12.237 88.0932 11.4795 89.556 10.722V29.2429C89.556 30.6822 89.556 34.3182 93.0342 34.3182C94.237 34.3182 95.6673 33.9015 97.2276 31.9699V22.2739C97.2276 18.9409 97.1951 15.3428 96.2199 12.9567C97.7802 12.3507 99.3731 11.5932 100.901 10.8357V28.3718C100.901 32.1972 100.998 34.0152 102.104 37.083H98.0403V37.0451Z" fill="#323232"/>
<path d="M106.979 15.9482C106.979 18.6373 108.409 19.8493 110.977 21.3264L113.871 23.0308C115.691 24.1292 117.999 25.7957 117.999 29.8104C117.999 34.8857 114.391 37.5748 110.912 37.5748C107.369 37.5748 104.509 35.0372 103.176 31.4012L106.687 28.6363C107.564 33.0298 109.612 35.5296 112.343 35.5296C114.131 35.5296 115.593 34.3554 115.593 31.7799C115.593 29.5453 114.261 28.0303 112.245 26.8941L108.474 24.7731C107.044 23.9398 104.053 21.9703 104.053 18.1449C104.053 14.0544 106.719 10.5699 112.635 10.5699C114.098 10.5699 115.983 10.9487 117.186 11.5168L116.471 18.2964C114.748 14.4711 112.83 12.6909 110.165 12.6909C108.247 12.7667 106.979 13.9787 106.979 15.9482Z" fill="#323232"/>
</svg>
