<svg width="81" height="66" viewBox="0 0 81 66" fill="none" xmlns="http://www.w3.org/2000/svg">
<path d="M24.0788 0L0 18.9742V65.4863H48.1912V18.9742L24.0788 0Z" fill="#0050B5"/>
<path d="M63.9062 0L48.1895 18.9742V65.4863H80.9998V32.7096L63.9062 0Z" fill="#FFC845"/>
<path d="M20.8223 33.2803V40.467C25.4567 40.2991 30.4942 38.9893 32.8114 36.0005V47.4522C30.4606 44.4633 25.4567 42.9185 20.8223 42.7506V50.1052C20.8223 52.9933 20.9902 55.915 22.1656 59.0046H12.6953C13.8035 55.915 14.1394 52.9933 14.1394 50.1052V33.2803C14.1394 30.3922 13.8707 27.4705 12.6953 24.3809H35.5316L35.4308 33.8512C32.9457 29.5526 26.9008 26.7316 21.2253 26.5302H21.0574C20.8895 28.8474 20.8223 31.0974 20.8223 33.2803Z" fill="#F6EFE8"/>
<path d="M19.2751 19.4446C20.833 19.4446 22.096 18.1816 22.096 16.6237C22.096 15.0657 20.833 13.8027 19.2751 13.8027C17.7171 13.8027 16.4541 15.0657 16.4541 16.6237C16.4541 18.1816 17.7171 19.4446 19.2751 19.4446Z" fill="#FFC845"/>
<path d="M28.9127 19.4446C30.4707 19.4446 31.7337 18.1816 31.7337 16.6237C31.7337 15.0657 30.4707 13.8027 28.9127 13.8027C27.3548 13.8027 26.0918 15.0657 26.0918 16.6237C26.0918 18.1816 27.3548 19.4446 28.9127 19.4446Z" fill="#FFC845"/>
<path d="M48.1915 18.9742L24.0791 0H63.9082L48.1915 18.9742Z" fill="#C24F1C"/>
</svg>
